%TF.GenerationSoftware,KiCad,Pcbnew,8.0.1*%
%TF.CreationDate,2024-11-04T22:10:12+13:00*%
%TF.ProjectId,morse_code_keyboard,6d6f7273-655f-4636-9f64-655f6b657962,rev?*%
%TF.SameCoordinates,Original*%
%TF.FileFunction,Drillmap*%
%TF.FilePolarity,Positive*%
%FSLAX45Y45*%
G04 Gerber Fmt 4.5, Leading zero omitted, Abs format (unit mm)*
G04 Created by KiCad (PCBNEW 8.0.1) date 2024-11-04 22:10:12*
%MOMM*%
%LPD*%
G01*
G04 APERTURE LIST*
%ADD10C,0.050000*%
%ADD11C,0.200000*%
%ADD12C,0.505000*%
G04 APERTURE END LIST*
D10*
X16006229Y-8509000D02*
G75*
G02*
X12187771Y-8509000I-1909229J0D01*
G01*
X12187771Y-8509000D02*
G75*
G02*
X16006229Y-8509000I1909229J0D01*
G01*
D11*
D12*
X13844500Y-8256500D02*
X14349500Y-8761500D01*
X14349500Y-8256500D02*
X13844500Y-8761500D01*
D11*
X12446048Y-10732212D02*
X12446048Y-10532212D01*
X12446048Y-10532212D02*
X12493667Y-10532212D01*
X12493667Y-10532212D02*
X12522239Y-10541736D01*
X12522239Y-10541736D02*
X12541286Y-10560784D01*
X12541286Y-10560784D02*
X12550810Y-10579831D01*
X12550810Y-10579831D02*
X12560334Y-10617927D01*
X12560334Y-10617927D02*
X12560334Y-10646498D01*
X12560334Y-10646498D02*
X12550810Y-10684593D01*
X12550810Y-10684593D02*
X12541286Y-10703641D01*
X12541286Y-10703641D02*
X12522239Y-10722689D01*
X12522239Y-10722689D02*
X12493667Y-10732212D01*
X12493667Y-10732212D02*
X12446048Y-10732212D01*
X12646048Y-10732212D02*
X12646048Y-10598879D01*
X12646048Y-10636974D02*
X12655572Y-10617927D01*
X12655572Y-10617927D02*
X12665096Y-10608403D01*
X12665096Y-10608403D02*
X12684143Y-10598879D01*
X12684143Y-10598879D02*
X12703191Y-10598879D01*
X12769858Y-10732212D02*
X12769858Y-10598879D01*
X12769858Y-10532212D02*
X12760334Y-10541736D01*
X12760334Y-10541736D02*
X12769858Y-10551260D01*
X12769858Y-10551260D02*
X12779381Y-10541736D01*
X12779381Y-10541736D02*
X12769858Y-10532212D01*
X12769858Y-10532212D02*
X12769858Y-10551260D01*
X12893667Y-10732212D02*
X12874620Y-10722689D01*
X12874620Y-10722689D02*
X12865096Y-10703641D01*
X12865096Y-10703641D02*
X12865096Y-10532212D01*
X12998429Y-10732212D02*
X12979381Y-10722689D01*
X12979381Y-10722689D02*
X12969858Y-10703641D01*
X12969858Y-10703641D02*
X12969858Y-10532212D01*
X13227001Y-10732212D02*
X13227001Y-10532212D01*
X13227001Y-10532212D02*
X13293667Y-10675070D01*
X13293667Y-10675070D02*
X13360334Y-10532212D01*
X13360334Y-10532212D02*
X13360334Y-10732212D01*
X13541286Y-10732212D02*
X13541286Y-10627451D01*
X13541286Y-10627451D02*
X13531762Y-10608403D01*
X13531762Y-10608403D02*
X13512715Y-10598879D01*
X13512715Y-10598879D02*
X13474620Y-10598879D01*
X13474620Y-10598879D02*
X13455572Y-10608403D01*
X13541286Y-10722689D02*
X13522239Y-10732212D01*
X13522239Y-10732212D02*
X13474620Y-10732212D01*
X13474620Y-10732212D02*
X13455572Y-10722689D01*
X13455572Y-10722689D02*
X13446048Y-10703641D01*
X13446048Y-10703641D02*
X13446048Y-10684593D01*
X13446048Y-10684593D02*
X13455572Y-10665546D01*
X13455572Y-10665546D02*
X13474620Y-10656022D01*
X13474620Y-10656022D02*
X13522239Y-10656022D01*
X13522239Y-10656022D02*
X13541286Y-10646498D01*
X13636524Y-10598879D02*
X13636524Y-10798879D01*
X13636524Y-10608403D02*
X13655572Y-10598879D01*
X13655572Y-10598879D02*
X13693667Y-10598879D01*
X13693667Y-10598879D02*
X13712715Y-10608403D01*
X13712715Y-10608403D02*
X13722239Y-10617927D01*
X13722239Y-10617927D02*
X13731762Y-10636974D01*
X13731762Y-10636974D02*
X13731762Y-10694117D01*
X13731762Y-10694117D02*
X13722239Y-10713165D01*
X13722239Y-10713165D02*
X13712715Y-10722689D01*
X13712715Y-10722689D02*
X13693667Y-10732212D01*
X13693667Y-10732212D02*
X13655572Y-10732212D01*
X13655572Y-10732212D02*
X13636524Y-10722689D01*
X13817477Y-10713165D02*
X13827001Y-10722689D01*
X13827001Y-10722689D02*
X13817477Y-10732212D01*
X13817477Y-10732212D02*
X13807953Y-10722689D01*
X13807953Y-10722689D02*
X13817477Y-10713165D01*
X13817477Y-10713165D02*
X13817477Y-10732212D01*
X13817477Y-10608403D02*
X13827001Y-10617927D01*
X13827001Y-10617927D02*
X13817477Y-10627451D01*
X13817477Y-10627451D02*
X13807953Y-10617927D01*
X13807953Y-10617927D02*
X13817477Y-10608403D01*
X13817477Y-10608403D02*
X13817477Y-10627451D01*
X11985271Y-10960729D02*
X12185271Y-11160729D01*
X12185271Y-10960729D02*
X11985271Y-11160729D01*
X12541286Y-10952212D02*
X12446048Y-10952212D01*
X12446048Y-10952212D02*
X12436524Y-11047451D01*
X12436524Y-11047451D02*
X12446048Y-11037927D01*
X12446048Y-11037927D02*
X12465096Y-11028403D01*
X12465096Y-11028403D02*
X12512715Y-11028403D01*
X12512715Y-11028403D02*
X12531762Y-11037927D01*
X12531762Y-11037927D02*
X12541286Y-11047451D01*
X12541286Y-11047451D02*
X12550810Y-11066498D01*
X12550810Y-11066498D02*
X12550810Y-11114117D01*
X12550810Y-11114117D02*
X12541286Y-11133165D01*
X12541286Y-11133165D02*
X12531762Y-11142689D01*
X12531762Y-11142689D02*
X12512715Y-11152212D01*
X12512715Y-11152212D02*
X12465096Y-11152212D01*
X12465096Y-11152212D02*
X12446048Y-11142689D01*
X12446048Y-11142689D02*
X12436524Y-11133165D01*
X12636524Y-11133165D02*
X12646048Y-11142689D01*
X12646048Y-11142689D02*
X12636524Y-11152212D01*
X12636524Y-11152212D02*
X12627001Y-11142689D01*
X12627001Y-11142689D02*
X12636524Y-11133165D01*
X12636524Y-11133165D02*
X12636524Y-11152212D01*
X12769858Y-10952212D02*
X12788905Y-10952212D01*
X12788905Y-10952212D02*
X12807953Y-10961736D01*
X12807953Y-10961736D02*
X12817477Y-10971260D01*
X12817477Y-10971260D02*
X12827001Y-10990308D01*
X12827001Y-10990308D02*
X12836524Y-11028403D01*
X12836524Y-11028403D02*
X12836524Y-11076022D01*
X12836524Y-11076022D02*
X12827001Y-11114117D01*
X12827001Y-11114117D02*
X12817477Y-11133165D01*
X12817477Y-11133165D02*
X12807953Y-11142689D01*
X12807953Y-11142689D02*
X12788905Y-11152212D01*
X12788905Y-11152212D02*
X12769858Y-11152212D01*
X12769858Y-11152212D02*
X12750810Y-11142689D01*
X12750810Y-11142689D02*
X12741286Y-11133165D01*
X12741286Y-11133165D02*
X12731762Y-11114117D01*
X12731762Y-11114117D02*
X12722239Y-11076022D01*
X12722239Y-11076022D02*
X12722239Y-11028403D01*
X12722239Y-11028403D02*
X12731762Y-10990308D01*
X12731762Y-10990308D02*
X12741286Y-10971260D01*
X12741286Y-10971260D02*
X12750810Y-10961736D01*
X12750810Y-10961736D02*
X12769858Y-10952212D01*
X13017477Y-10952212D02*
X12922239Y-10952212D01*
X12922239Y-10952212D02*
X12912715Y-11047451D01*
X12912715Y-11047451D02*
X12922239Y-11037927D01*
X12922239Y-11037927D02*
X12941286Y-11028403D01*
X12941286Y-11028403D02*
X12988905Y-11028403D01*
X12988905Y-11028403D02*
X13007953Y-11037927D01*
X13007953Y-11037927D02*
X13017477Y-11047451D01*
X13017477Y-11047451D02*
X13027001Y-11066498D01*
X13027001Y-11066498D02*
X13027001Y-11114117D01*
X13027001Y-11114117D02*
X13017477Y-11133165D01*
X13017477Y-11133165D02*
X13007953Y-11142689D01*
X13007953Y-11142689D02*
X12988905Y-11152212D01*
X12988905Y-11152212D02*
X12941286Y-11152212D01*
X12941286Y-11152212D02*
X12922239Y-11142689D01*
X12922239Y-11142689D02*
X12912715Y-11133165D01*
X13150810Y-10952212D02*
X13169858Y-10952212D01*
X13169858Y-10952212D02*
X13188905Y-10961736D01*
X13188905Y-10961736D02*
X13198429Y-10971260D01*
X13198429Y-10971260D02*
X13207953Y-10990308D01*
X13207953Y-10990308D02*
X13217477Y-11028403D01*
X13217477Y-11028403D02*
X13217477Y-11076022D01*
X13217477Y-11076022D02*
X13207953Y-11114117D01*
X13207953Y-11114117D02*
X13198429Y-11133165D01*
X13198429Y-11133165D02*
X13188905Y-11142689D01*
X13188905Y-11142689D02*
X13169858Y-11152212D01*
X13169858Y-11152212D02*
X13150810Y-11152212D01*
X13150810Y-11152212D02*
X13131762Y-11142689D01*
X13131762Y-11142689D02*
X13122239Y-11133165D01*
X13122239Y-11133165D02*
X13112715Y-11114117D01*
X13112715Y-11114117D02*
X13103191Y-11076022D01*
X13103191Y-11076022D02*
X13103191Y-11028403D01*
X13103191Y-11028403D02*
X13112715Y-10990308D01*
X13112715Y-10990308D02*
X13122239Y-10971260D01*
X13122239Y-10971260D02*
X13131762Y-10961736D01*
X13131762Y-10961736D02*
X13150810Y-10952212D01*
X13303191Y-11152212D02*
X13303191Y-11018879D01*
X13303191Y-11037927D02*
X13312715Y-11028403D01*
X13312715Y-11028403D02*
X13331762Y-11018879D01*
X13331762Y-11018879D02*
X13360334Y-11018879D01*
X13360334Y-11018879D02*
X13379382Y-11028403D01*
X13379382Y-11028403D02*
X13388905Y-11047451D01*
X13388905Y-11047451D02*
X13388905Y-11152212D01*
X13388905Y-11047451D02*
X13398429Y-11028403D01*
X13398429Y-11028403D02*
X13417477Y-11018879D01*
X13417477Y-11018879D02*
X13446048Y-11018879D01*
X13446048Y-11018879D02*
X13465096Y-11028403D01*
X13465096Y-11028403D02*
X13474620Y-11047451D01*
X13474620Y-11047451D02*
X13474620Y-11152212D01*
X13569858Y-11152212D02*
X13569858Y-11018879D01*
X13569858Y-11037927D02*
X13579382Y-11028403D01*
X13579382Y-11028403D02*
X13598429Y-11018879D01*
X13598429Y-11018879D02*
X13627001Y-11018879D01*
X13627001Y-11018879D02*
X13646048Y-11028403D01*
X13646048Y-11028403D02*
X13655572Y-11047451D01*
X13655572Y-11047451D02*
X13655572Y-11152212D01*
X13655572Y-11047451D02*
X13665096Y-11028403D01*
X13665096Y-11028403D02*
X13684143Y-11018879D01*
X13684143Y-11018879D02*
X13712715Y-11018879D01*
X13712715Y-11018879D02*
X13731763Y-11028403D01*
X13731763Y-11028403D02*
X13741286Y-11047451D01*
X13741286Y-11047451D02*
X13741286Y-11152212D01*
X14131763Y-10942689D02*
X13960334Y-11199831D01*
X14388905Y-10952212D02*
X14407953Y-10952212D01*
X14407953Y-10952212D02*
X14427001Y-10961736D01*
X14427001Y-10961736D02*
X14436525Y-10971260D01*
X14436525Y-10971260D02*
X14446048Y-10990308D01*
X14446048Y-10990308D02*
X14455572Y-11028403D01*
X14455572Y-11028403D02*
X14455572Y-11076022D01*
X14455572Y-11076022D02*
X14446048Y-11114117D01*
X14446048Y-11114117D02*
X14436525Y-11133165D01*
X14436525Y-11133165D02*
X14427001Y-11142689D01*
X14427001Y-11142689D02*
X14407953Y-11152212D01*
X14407953Y-11152212D02*
X14388905Y-11152212D01*
X14388905Y-11152212D02*
X14369858Y-11142689D01*
X14369858Y-11142689D02*
X14360334Y-11133165D01*
X14360334Y-11133165D02*
X14350810Y-11114117D01*
X14350810Y-11114117D02*
X14341286Y-11076022D01*
X14341286Y-11076022D02*
X14341286Y-11028403D01*
X14341286Y-11028403D02*
X14350810Y-10990308D01*
X14350810Y-10990308D02*
X14360334Y-10971260D01*
X14360334Y-10971260D02*
X14369858Y-10961736D01*
X14369858Y-10961736D02*
X14388905Y-10952212D01*
X14541286Y-11133165D02*
X14550810Y-11142689D01*
X14550810Y-11142689D02*
X14541286Y-11152212D01*
X14541286Y-11152212D02*
X14531763Y-11142689D01*
X14531763Y-11142689D02*
X14541286Y-11133165D01*
X14541286Y-11133165D02*
X14541286Y-11152212D01*
X14741286Y-11152212D02*
X14627001Y-11152212D01*
X14684144Y-11152212D02*
X14684144Y-10952212D01*
X14684144Y-10952212D02*
X14665096Y-10980784D01*
X14665096Y-10980784D02*
X14646048Y-10999831D01*
X14646048Y-10999831D02*
X14627001Y-11009355D01*
X14836525Y-11152212D02*
X14874620Y-11152212D01*
X14874620Y-11152212D02*
X14893667Y-11142689D01*
X14893667Y-11142689D02*
X14903191Y-11133165D01*
X14903191Y-11133165D02*
X14922239Y-11104593D01*
X14922239Y-11104593D02*
X14931763Y-11066498D01*
X14931763Y-11066498D02*
X14931763Y-10990308D01*
X14931763Y-10990308D02*
X14922239Y-10971260D01*
X14922239Y-10971260D02*
X14912715Y-10961736D01*
X14912715Y-10961736D02*
X14893667Y-10952212D01*
X14893667Y-10952212D02*
X14855572Y-10952212D01*
X14855572Y-10952212D02*
X14836525Y-10961736D01*
X14836525Y-10961736D02*
X14827001Y-10971260D01*
X14827001Y-10971260D02*
X14817477Y-10990308D01*
X14817477Y-10990308D02*
X14817477Y-11037927D01*
X14817477Y-11037927D02*
X14827001Y-11056974D01*
X14827001Y-11056974D02*
X14836525Y-11066498D01*
X14836525Y-11066498D02*
X14855572Y-11076022D01*
X14855572Y-11076022D02*
X14893667Y-11076022D01*
X14893667Y-11076022D02*
X14912715Y-11066498D01*
X14912715Y-11066498D02*
X14922239Y-11056974D01*
X14922239Y-11056974D02*
X14931763Y-11037927D01*
X15046048Y-11037927D02*
X15027001Y-11028403D01*
X15027001Y-11028403D02*
X15017477Y-11018879D01*
X15017477Y-11018879D02*
X15007953Y-10999831D01*
X15007953Y-10999831D02*
X15007953Y-10990308D01*
X15007953Y-10990308D02*
X15017477Y-10971260D01*
X15017477Y-10971260D02*
X15027001Y-10961736D01*
X15027001Y-10961736D02*
X15046048Y-10952212D01*
X15046048Y-10952212D02*
X15084144Y-10952212D01*
X15084144Y-10952212D02*
X15103191Y-10961736D01*
X15103191Y-10961736D02*
X15112715Y-10971260D01*
X15112715Y-10971260D02*
X15122239Y-10990308D01*
X15122239Y-10990308D02*
X15122239Y-10999831D01*
X15122239Y-10999831D02*
X15112715Y-11018879D01*
X15112715Y-11018879D02*
X15103191Y-11028403D01*
X15103191Y-11028403D02*
X15084144Y-11037927D01*
X15084144Y-11037927D02*
X15046048Y-11037927D01*
X15046048Y-11037927D02*
X15027001Y-11047451D01*
X15027001Y-11047451D02*
X15017477Y-11056974D01*
X15017477Y-11056974D02*
X15007953Y-11076022D01*
X15007953Y-11076022D02*
X15007953Y-11114117D01*
X15007953Y-11114117D02*
X15017477Y-11133165D01*
X15017477Y-11133165D02*
X15027001Y-11142689D01*
X15027001Y-11142689D02*
X15046048Y-11152212D01*
X15046048Y-11152212D02*
X15084144Y-11152212D01*
X15084144Y-11152212D02*
X15103191Y-11142689D01*
X15103191Y-11142689D02*
X15112715Y-11133165D01*
X15112715Y-11133165D02*
X15122239Y-11114117D01*
X15122239Y-11114117D02*
X15122239Y-11076022D01*
X15122239Y-11076022D02*
X15112715Y-11056974D01*
X15112715Y-11056974D02*
X15103191Y-11047451D01*
X15103191Y-11047451D02*
X15084144Y-11037927D01*
X15236525Y-11037927D02*
X15217477Y-11028403D01*
X15217477Y-11028403D02*
X15207953Y-11018879D01*
X15207953Y-11018879D02*
X15198429Y-10999831D01*
X15198429Y-10999831D02*
X15198429Y-10990308D01*
X15198429Y-10990308D02*
X15207953Y-10971260D01*
X15207953Y-10971260D02*
X15217477Y-10961736D01*
X15217477Y-10961736D02*
X15236525Y-10952212D01*
X15236525Y-10952212D02*
X15274620Y-10952212D01*
X15274620Y-10952212D02*
X15293667Y-10961736D01*
X15293667Y-10961736D02*
X15303191Y-10971260D01*
X15303191Y-10971260D02*
X15312715Y-10990308D01*
X15312715Y-10990308D02*
X15312715Y-10999831D01*
X15312715Y-10999831D02*
X15303191Y-11018879D01*
X15303191Y-11018879D02*
X15293667Y-11028403D01*
X15293667Y-11028403D02*
X15274620Y-11037927D01*
X15274620Y-11037927D02*
X15236525Y-11037927D01*
X15236525Y-11037927D02*
X15217477Y-11047451D01*
X15217477Y-11047451D02*
X15207953Y-11056974D01*
X15207953Y-11056974D02*
X15198429Y-11076022D01*
X15198429Y-11076022D02*
X15198429Y-11114117D01*
X15198429Y-11114117D02*
X15207953Y-11133165D01*
X15207953Y-11133165D02*
X15217477Y-11142689D01*
X15217477Y-11142689D02*
X15236525Y-11152212D01*
X15236525Y-11152212D02*
X15274620Y-11152212D01*
X15274620Y-11152212D02*
X15293667Y-11142689D01*
X15293667Y-11142689D02*
X15303191Y-11133165D01*
X15303191Y-11133165D02*
X15312715Y-11114117D01*
X15312715Y-11114117D02*
X15312715Y-11076022D01*
X15312715Y-11076022D02*
X15303191Y-11056974D01*
X15303191Y-11056974D02*
X15293667Y-11047451D01*
X15293667Y-11047451D02*
X15274620Y-11037927D01*
X15388906Y-10952212D02*
X15388906Y-10990308D01*
X15465096Y-10952212D02*
X15465096Y-10990308D01*
X15760334Y-11228403D02*
X15750810Y-11218879D01*
X15750810Y-11218879D02*
X15731763Y-11190308D01*
X15731763Y-11190308D02*
X15722239Y-11171260D01*
X15722239Y-11171260D02*
X15712715Y-11142689D01*
X15712715Y-11142689D02*
X15703191Y-11095070D01*
X15703191Y-11095070D02*
X15703191Y-11056974D01*
X15703191Y-11056974D02*
X15712715Y-11009355D01*
X15712715Y-11009355D02*
X15722239Y-10980784D01*
X15722239Y-10980784D02*
X15731763Y-10961736D01*
X15731763Y-10961736D02*
X15750810Y-10933165D01*
X15750810Y-10933165D02*
X15760334Y-10923641D01*
X15941287Y-11152212D02*
X15827001Y-11152212D01*
X15884144Y-11152212D02*
X15884144Y-10952212D01*
X15884144Y-10952212D02*
X15865096Y-10980784D01*
X15865096Y-10980784D02*
X15846048Y-10999831D01*
X15846048Y-10999831D02*
X15827001Y-11009355D01*
X16179382Y-11152212D02*
X16179382Y-10952212D01*
X16265096Y-11152212D02*
X16265096Y-11047451D01*
X16265096Y-11047451D02*
X16255572Y-11028403D01*
X16255572Y-11028403D02*
X16236525Y-11018879D01*
X16236525Y-11018879D02*
X16207953Y-11018879D01*
X16207953Y-11018879D02*
X16188906Y-11028403D01*
X16188906Y-11028403D02*
X16179382Y-11037927D01*
X16388906Y-11152212D02*
X16369858Y-11142689D01*
X16369858Y-11142689D02*
X16360334Y-11133165D01*
X16360334Y-11133165D02*
X16350810Y-11114117D01*
X16350810Y-11114117D02*
X16350810Y-11056974D01*
X16350810Y-11056974D02*
X16360334Y-11037927D01*
X16360334Y-11037927D02*
X16369858Y-11028403D01*
X16369858Y-11028403D02*
X16388906Y-11018879D01*
X16388906Y-11018879D02*
X16417477Y-11018879D01*
X16417477Y-11018879D02*
X16436525Y-11028403D01*
X16436525Y-11028403D02*
X16446049Y-11037927D01*
X16446049Y-11037927D02*
X16455572Y-11056974D01*
X16455572Y-11056974D02*
X16455572Y-11114117D01*
X16455572Y-11114117D02*
X16446049Y-11133165D01*
X16446049Y-11133165D02*
X16436525Y-11142689D01*
X16436525Y-11142689D02*
X16417477Y-11152212D01*
X16417477Y-11152212D02*
X16388906Y-11152212D01*
X16569858Y-11152212D02*
X16550810Y-11142689D01*
X16550810Y-11142689D02*
X16541287Y-11123641D01*
X16541287Y-11123641D02*
X16541287Y-10952212D01*
X16722239Y-11142689D02*
X16703191Y-11152212D01*
X16703191Y-11152212D02*
X16665096Y-11152212D01*
X16665096Y-11152212D02*
X16646049Y-11142689D01*
X16646049Y-11142689D02*
X16636525Y-11123641D01*
X16636525Y-11123641D02*
X16636525Y-11047451D01*
X16636525Y-11047451D02*
X16646049Y-11028403D01*
X16646049Y-11028403D02*
X16665096Y-11018879D01*
X16665096Y-11018879D02*
X16703191Y-11018879D01*
X16703191Y-11018879D02*
X16722239Y-11028403D01*
X16722239Y-11028403D02*
X16731763Y-11047451D01*
X16731763Y-11047451D02*
X16731763Y-11066498D01*
X16731763Y-11066498D02*
X16636525Y-11085546D01*
X16798430Y-11228403D02*
X16807953Y-11218879D01*
X16807953Y-11218879D02*
X16827001Y-11190308D01*
X16827001Y-11190308D02*
X16836525Y-11171260D01*
X16836525Y-11171260D02*
X16846049Y-11142689D01*
X16846049Y-11142689D02*
X16855572Y-11095070D01*
X16855572Y-11095070D02*
X16855572Y-11056974D01*
X16855572Y-11056974D02*
X16846049Y-11009355D01*
X16846049Y-11009355D02*
X16836525Y-10980784D01*
X16836525Y-10980784D02*
X16827001Y-10961736D01*
X16827001Y-10961736D02*
X16807953Y-10933165D01*
X16807953Y-10933165D02*
X16798430Y-10923641D01*
X17160334Y-11228403D02*
X17150811Y-11218879D01*
X17150811Y-11218879D02*
X17131763Y-11190308D01*
X17131763Y-11190308D02*
X17122239Y-11171260D01*
X17122239Y-11171260D02*
X17112715Y-11142689D01*
X17112715Y-11142689D02*
X17103192Y-11095070D01*
X17103192Y-11095070D02*
X17103192Y-11056974D01*
X17103192Y-11056974D02*
X17112715Y-11009355D01*
X17112715Y-11009355D02*
X17122239Y-10980784D01*
X17122239Y-10980784D02*
X17131763Y-10961736D01*
X17131763Y-10961736D02*
X17150811Y-10933165D01*
X17150811Y-10933165D02*
X17160334Y-10923641D01*
X17236525Y-11018879D02*
X17236525Y-11152212D01*
X17236525Y-11037927D02*
X17246049Y-11028403D01*
X17246049Y-11028403D02*
X17265096Y-11018879D01*
X17265096Y-11018879D02*
X17293668Y-11018879D01*
X17293668Y-11018879D02*
X17312715Y-11028403D01*
X17312715Y-11028403D02*
X17322239Y-11047451D01*
X17322239Y-11047451D02*
X17322239Y-11152212D01*
X17446049Y-11152212D02*
X17427001Y-11142689D01*
X17427001Y-11142689D02*
X17417477Y-11133165D01*
X17417477Y-11133165D02*
X17407953Y-11114117D01*
X17407953Y-11114117D02*
X17407953Y-11056974D01*
X17407953Y-11056974D02*
X17417477Y-11037927D01*
X17417477Y-11037927D02*
X17427001Y-11028403D01*
X17427001Y-11028403D02*
X17446049Y-11018879D01*
X17446049Y-11018879D02*
X17474620Y-11018879D01*
X17474620Y-11018879D02*
X17493668Y-11028403D01*
X17493668Y-11028403D02*
X17503192Y-11037927D01*
X17503192Y-11037927D02*
X17512715Y-11056974D01*
X17512715Y-11056974D02*
X17512715Y-11114117D01*
X17512715Y-11114117D02*
X17503192Y-11133165D01*
X17503192Y-11133165D02*
X17493668Y-11142689D01*
X17493668Y-11142689D02*
X17474620Y-11152212D01*
X17474620Y-11152212D02*
X17446049Y-11152212D01*
X17569858Y-11018879D02*
X17646049Y-11018879D01*
X17598430Y-10952212D02*
X17598430Y-11123641D01*
X17598430Y-11123641D02*
X17607953Y-11142689D01*
X17607953Y-11142689D02*
X17627001Y-11152212D01*
X17627001Y-11152212D02*
X17646049Y-11152212D01*
X17865096Y-11018879D02*
X17865096Y-11218879D01*
X17865096Y-11028403D02*
X17884144Y-11018879D01*
X17884144Y-11018879D02*
X17922239Y-11018879D01*
X17922239Y-11018879D02*
X17941287Y-11028403D01*
X17941287Y-11028403D02*
X17950811Y-11037927D01*
X17950811Y-11037927D02*
X17960334Y-11056974D01*
X17960334Y-11056974D02*
X17960334Y-11114117D01*
X17960334Y-11114117D02*
X17950811Y-11133165D01*
X17950811Y-11133165D02*
X17941287Y-11142689D01*
X17941287Y-11142689D02*
X17922239Y-11152212D01*
X17922239Y-11152212D02*
X17884144Y-11152212D01*
X17884144Y-11152212D02*
X17865096Y-11142689D01*
X18074620Y-11152212D02*
X18055573Y-11142689D01*
X18055573Y-11142689D02*
X18046049Y-11123641D01*
X18046049Y-11123641D02*
X18046049Y-10952212D01*
X18236525Y-11152212D02*
X18236525Y-11047451D01*
X18236525Y-11047451D02*
X18227001Y-11028403D01*
X18227001Y-11028403D02*
X18207954Y-11018879D01*
X18207954Y-11018879D02*
X18169858Y-11018879D01*
X18169858Y-11018879D02*
X18150811Y-11028403D01*
X18236525Y-11142689D02*
X18217477Y-11152212D01*
X18217477Y-11152212D02*
X18169858Y-11152212D01*
X18169858Y-11152212D02*
X18150811Y-11142689D01*
X18150811Y-11142689D02*
X18141287Y-11123641D01*
X18141287Y-11123641D02*
X18141287Y-11104593D01*
X18141287Y-11104593D02*
X18150811Y-11085546D01*
X18150811Y-11085546D02*
X18169858Y-11076022D01*
X18169858Y-11076022D02*
X18217477Y-11076022D01*
X18217477Y-11076022D02*
X18236525Y-11066498D01*
X18303192Y-11018879D02*
X18379382Y-11018879D01*
X18331763Y-10952212D02*
X18331763Y-11123641D01*
X18331763Y-11123641D02*
X18341287Y-11142689D01*
X18341287Y-11142689D02*
X18360334Y-11152212D01*
X18360334Y-11152212D02*
X18379382Y-11152212D01*
X18522239Y-11142689D02*
X18503192Y-11152212D01*
X18503192Y-11152212D02*
X18465096Y-11152212D01*
X18465096Y-11152212D02*
X18446049Y-11142689D01*
X18446049Y-11142689D02*
X18436525Y-11123641D01*
X18436525Y-11123641D02*
X18436525Y-11047451D01*
X18436525Y-11047451D02*
X18446049Y-11028403D01*
X18446049Y-11028403D02*
X18465096Y-11018879D01*
X18465096Y-11018879D02*
X18503192Y-11018879D01*
X18503192Y-11018879D02*
X18522239Y-11028403D01*
X18522239Y-11028403D02*
X18531763Y-11047451D01*
X18531763Y-11047451D02*
X18531763Y-11066498D01*
X18531763Y-11066498D02*
X18436525Y-11085546D01*
X18703192Y-11152212D02*
X18703192Y-10952212D01*
X18703192Y-11142689D02*
X18684144Y-11152212D01*
X18684144Y-11152212D02*
X18646049Y-11152212D01*
X18646049Y-11152212D02*
X18627001Y-11142689D01*
X18627001Y-11142689D02*
X18617477Y-11133165D01*
X18617477Y-11133165D02*
X18607954Y-11114117D01*
X18607954Y-11114117D02*
X18607954Y-11056974D01*
X18607954Y-11056974D02*
X18617477Y-11037927D01*
X18617477Y-11037927D02*
X18627001Y-11028403D01*
X18627001Y-11028403D02*
X18646049Y-11018879D01*
X18646049Y-11018879D02*
X18684144Y-11018879D01*
X18684144Y-11018879D02*
X18703192Y-11028403D01*
X18779382Y-11228403D02*
X18788906Y-11218879D01*
X18788906Y-11218879D02*
X18807954Y-11190308D01*
X18807954Y-11190308D02*
X18817477Y-11171260D01*
X18817477Y-11171260D02*
X18827001Y-11142689D01*
X18827001Y-11142689D02*
X18836525Y-11095070D01*
X18836525Y-11095070D02*
X18836525Y-11056974D01*
X18836525Y-11056974D02*
X18827001Y-11009355D01*
X18827001Y-11009355D02*
X18817477Y-10980784D01*
X18817477Y-10980784D02*
X18807954Y-10961736D01*
X18807954Y-10961736D02*
X18788906Y-10933165D01*
X18788906Y-10933165D02*
X18779382Y-10923641D01*
M02*
