%TF.GenerationSoftware,KiCad,Pcbnew,8.0.1*%
%TF.CreationDate,2024-11-04T22:09:12+13:00*%
%TF.ProjectId,morse_code_keyboard,6d6f7273-655f-4636-9f64-655f6b657962,rev?*%
%TF.SameCoordinates,Original*%
%TF.FileFunction,Legend,Top*%
%TF.FilePolarity,Positive*%
%FSLAX46Y46*%
G04 Gerber Fmt 4.6, Leading zero omitted, Abs format (unit mm)*
G04 Created by KiCad (PCBNEW 8.0.1) date 2024-11-04 22:09:12*
%MOMM*%
%LPD*%
G01*
G04 APERTURE LIST*
%ADD10C,0.150000*%
%ADD11C,0.120000*%
G04 APERTURE END LIST*
D10*
X139636667Y-76497200D02*
X139779524Y-76544819D01*
X139779524Y-76544819D02*
X140017619Y-76544819D01*
X140017619Y-76544819D02*
X140112857Y-76497200D01*
X140112857Y-76497200D02*
X140160476Y-76449580D01*
X140160476Y-76449580D02*
X140208095Y-76354342D01*
X140208095Y-76354342D02*
X140208095Y-76259104D01*
X140208095Y-76259104D02*
X140160476Y-76163866D01*
X140160476Y-76163866D02*
X140112857Y-76116247D01*
X140112857Y-76116247D02*
X140017619Y-76068628D01*
X140017619Y-76068628D02*
X139827143Y-76021009D01*
X139827143Y-76021009D02*
X139731905Y-75973390D01*
X139731905Y-75973390D02*
X139684286Y-75925771D01*
X139684286Y-75925771D02*
X139636667Y-75830533D01*
X139636667Y-75830533D02*
X139636667Y-75735295D01*
X139636667Y-75735295D02*
X139684286Y-75640057D01*
X139684286Y-75640057D02*
X139731905Y-75592438D01*
X139731905Y-75592438D02*
X139827143Y-75544819D01*
X139827143Y-75544819D02*
X140065238Y-75544819D01*
X140065238Y-75544819D02*
X140208095Y-75592438D01*
X140541429Y-75544819D02*
X140779524Y-76544819D01*
X140779524Y-76544819D02*
X140970000Y-75830533D01*
X140970000Y-75830533D02*
X141160476Y-76544819D01*
X141160476Y-76544819D02*
X141398572Y-75544819D01*
X142303333Y-76544819D02*
X141731905Y-76544819D01*
X142017619Y-76544819D02*
X142017619Y-75544819D01*
X142017619Y-75544819D02*
X141922381Y-75687676D01*
X141922381Y-75687676D02*
X141827143Y-75782914D01*
X141827143Y-75782914D02*
X141731905Y-75830533D01*
X135159819Y-99861904D02*
X135969342Y-99861904D01*
X135969342Y-99861904D02*
X136064580Y-99814285D01*
X136064580Y-99814285D02*
X136112200Y-99766666D01*
X136112200Y-99766666D02*
X136159819Y-99671428D01*
X136159819Y-99671428D02*
X136159819Y-99480952D01*
X136159819Y-99480952D02*
X136112200Y-99385714D01*
X136112200Y-99385714D02*
X136064580Y-99338095D01*
X136064580Y-99338095D02*
X135969342Y-99290476D01*
X135969342Y-99290476D02*
X135159819Y-99290476D01*
X136159819Y-98290476D02*
X136159819Y-98861904D01*
X136159819Y-98576190D02*
X135159819Y-98576190D01*
X135159819Y-98576190D02*
X135302676Y-98671428D01*
X135302676Y-98671428D02*
X135397914Y-98766666D01*
X135397914Y-98766666D02*
X135445533Y-98861904D01*
X131947200Y-82643332D02*
X131994819Y-82500475D01*
X131994819Y-82500475D02*
X131994819Y-82262380D01*
X131994819Y-82262380D02*
X131947200Y-82167142D01*
X131947200Y-82167142D02*
X131899580Y-82119523D01*
X131899580Y-82119523D02*
X131804342Y-82071904D01*
X131804342Y-82071904D02*
X131709104Y-82071904D01*
X131709104Y-82071904D02*
X131613866Y-82119523D01*
X131613866Y-82119523D02*
X131566247Y-82167142D01*
X131566247Y-82167142D02*
X131518628Y-82262380D01*
X131518628Y-82262380D02*
X131471009Y-82452856D01*
X131471009Y-82452856D02*
X131423390Y-82548094D01*
X131423390Y-82548094D02*
X131375771Y-82595713D01*
X131375771Y-82595713D02*
X131280533Y-82643332D01*
X131280533Y-82643332D02*
X131185295Y-82643332D01*
X131185295Y-82643332D02*
X131090057Y-82595713D01*
X131090057Y-82595713D02*
X131042438Y-82548094D01*
X131042438Y-82548094D02*
X130994819Y-82452856D01*
X130994819Y-82452856D02*
X130994819Y-82214761D01*
X130994819Y-82214761D02*
X131042438Y-82071904D01*
X130994819Y-81738570D02*
X131994819Y-81500475D01*
X131994819Y-81500475D02*
X131280533Y-81309999D01*
X131280533Y-81309999D02*
X131994819Y-81119523D01*
X131994819Y-81119523D02*
X130994819Y-80881428D01*
X131090057Y-80548094D02*
X131042438Y-80500475D01*
X131042438Y-80500475D02*
X130994819Y-80405237D01*
X130994819Y-80405237D02*
X130994819Y-80167142D01*
X130994819Y-80167142D02*
X131042438Y-80071904D01*
X131042438Y-80071904D02*
X131090057Y-80024285D01*
X131090057Y-80024285D02*
X131185295Y-79976666D01*
X131185295Y-79976666D02*
X131280533Y-79976666D01*
X131280533Y-79976666D02*
X131423390Y-80024285D01*
X131423390Y-80024285D02*
X131994819Y-80595713D01*
X131994819Y-80595713D02*
X131994819Y-79976666D01*
X131814819Y-87796666D02*
X131338628Y-88129999D01*
X131814819Y-88368094D02*
X130814819Y-88368094D01*
X130814819Y-88368094D02*
X130814819Y-87987142D01*
X130814819Y-87987142D02*
X130862438Y-87891904D01*
X130862438Y-87891904D02*
X130910057Y-87844285D01*
X130910057Y-87844285D02*
X131005295Y-87796666D01*
X131005295Y-87796666D02*
X131148152Y-87796666D01*
X131148152Y-87796666D02*
X131243390Y-87844285D01*
X131243390Y-87844285D02*
X131291009Y-87891904D01*
X131291009Y-87891904D02*
X131338628Y-87987142D01*
X131338628Y-87987142D02*
X131338628Y-88368094D01*
X131814819Y-86844285D02*
X131814819Y-87415713D01*
X131814819Y-87129999D02*
X130814819Y-87129999D01*
X130814819Y-87129999D02*
X130957676Y-87225237D01*
X130957676Y-87225237D02*
X131052914Y-87320475D01*
X131052914Y-87320475D02*
X131100533Y-87415713D01*
X153210833Y-90584580D02*
X153163214Y-90632200D01*
X153163214Y-90632200D02*
X153020357Y-90679819D01*
X153020357Y-90679819D02*
X152925119Y-90679819D01*
X152925119Y-90679819D02*
X152782262Y-90632200D01*
X152782262Y-90632200D02*
X152687024Y-90536961D01*
X152687024Y-90536961D02*
X152639405Y-90441723D01*
X152639405Y-90441723D02*
X152591786Y-90251247D01*
X152591786Y-90251247D02*
X152591786Y-90108390D01*
X152591786Y-90108390D02*
X152639405Y-89917914D01*
X152639405Y-89917914D02*
X152687024Y-89822676D01*
X152687024Y-89822676D02*
X152782262Y-89727438D01*
X152782262Y-89727438D02*
X152925119Y-89679819D01*
X152925119Y-89679819D02*
X153020357Y-89679819D01*
X153020357Y-89679819D02*
X153163214Y-89727438D01*
X153163214Y-89727438D02*
X153210833Y-89775057D01*
X153591786Y-89775057D02*
X153639405Y-89727438D01*
X153639405Y-89727438D02*
X153734643Y-89679819D01*
X153734643Y-89679819D02*
X153972738Y-89679819D01*
X153972738Y-89679819D02*
X154067976Y-89727438D01*
X154067976Y-89727438D02*
X154115595Y-89775057D01*
X154115595Y-89775057D02*
X154163214Y-89870295D01*
X154163214Y-89870295D02*
X154163214Y-89965533D01*
X154163214Y-89965533D02*
X154115595Y-90108390D01*
X154115595Y-90108390D02*
X153544167Y-90679819D01*
X153544167Y-90679819D02*
X154163214Y-90679819D01*
X153210833Y-86774580D02*
X153163214Y-86822200D01*
X153163214Y-86822200D02*
X153020357Y-86869819D01*
X153020357Y-86869819D02*
X152925119Y-86869819D01*
X152925119Y-86869819D02*
X152782262Y-86822200D01*
X152782262Y-86822200D02*
X152687024Y-86726961D01*
X152687024Y-86726961D02*
X152639405Y-86631723D01*
X152639405Y-86631723D02*
X152591786Y-86441247D01*
X152591786Y-86441247D02*
X152591786Y-86298390D01*
X152591786Y-86298390D02*
X152639405Y-86107914D01*
X152639405Y-86107914D02*
X152687024Y-86012676D01*
X152687024Y-86012676D02*
X152782262Y-85917438D01*
X152782262Y-85917438D02*
X152925119Y-85869819D01*
X152925119Y-85869819D02*
X153020357Y-85869819D01*
X153020357Y-85869819D02*
X153163214Y-85917438D01*
X153163214Y-85917438D02*
X153210833Y-85965057D01*
X154163214Y-86869819D02*
X153591786Y-86869819D01*
X153877500Y-86869819D02*
X153877500Y-85869819D01*
X153877500Y-85869819D02*
X153782262Y-86012676D01*
X153782262Y-86012676D02*
X153687024Y-86107914D01*
X153687024Y-86107914D02*
X153591786Y-86155533D01*
D11*
%TO.C,SW1*%
X133370000Y-77490000D02*
X133370000Y-92690000D01*
X133370000Y-92690000D02*
X148570000Y-92690000D01*
X148570000Y-92690000D02*
X148570000Y-77490000D01*
X148570000Y-77490000D02*
X133370000Y-77490000D01*
%TO.C,U1*%
X136545000Y-99100000D02*
X136545000Y-101050000D01*
X136545000Y-99100000D02*
X136545000Y-97150000D01*
X146665000Y-99100000D02*
X146665000Y-101050000D01*
X146665000Y-99100000D02*
X146665000Y-97150000D01*
X136600000Y-101825000D02*
X136270000Y-102065000D01*
X136270000Y-101585000D01*
X136600000Y-101825000D01*
G36*
X136600000Y-101825000D02*
G01*
X136270000Y-102065000D01*
X136270000Y-101585000D01*
X136600000Y-101825000D01*
G37*
D10*
%TO.C,SW2*%
X129940000Y-78980000D02*
X130440000Y-79480000D01*
X129140000Y-78980000D02*
X129940000Y-78980000D01*
X130440000Y-79480000D02*
X130440000Y-83080000D01*
X128640000Y-79480000D02*
X129140000Y-78980000D01*
X130440000Y-83080000D02*
X129940000Y-83580000D01*
X128640000Y-83080000D02*
X128640000Y-79480000D01*
X129940000Y-83580000D02*
X129140000Y-83580000D01*
X129140000Y-83580000D02*
X128640000Y-83080000D01*
D11*
%TO.C,R1*%
X130450000Y-86902936D02*
X130450000Y-88357064D01*
X128630000Y-86902936D02*
X128630000Y-88357064D01*
%TO.C,C2*%
X152666248Y-91165000D02*
X154088752Y-91165000D01*
X152666248Y-92985000D02*
X154088752Y-92985000D01*
%TO.C,C1*%
X152666248Y-87355000D02*
X154088752Y-87355000D01*
X152666248Y-89175000D02*
X154088752Y-89175000D01*
%TD*%
M02*
