G04 #@! TF.GenerationSoftware,KiCad,Pcbnew,8.0.1*
G04 #@! TF.CreationDate,2024-11-04T22:09:55+13:00*
G04 #@! TF.ProjectId,morse_code_keyboard,6d6f7273-655f-4636-9f64-655f6b657962,rev?*
G04 #@! TF.SameCoordinates,Original*
G04 #@! TF.FileFunction,Legend,Bot*
G04 #@! TF.FilePolarity,Positive*
%FSLAX46Y46*%
G04 Gerber Fmt 4.6, Leading zero omitted, Abs format (unit mm)*
G04 Created by KiCad (PCBNEW 8.0.1) date 2024-11-04 22:09:55*
%MOMM*%
%LPD*%
G01*
G04 APERTURE LIST*
G04 Aperture macros list*
%AMRoundRect*
0 Rectangle with rounded corners*
0 $1 Rounding radius*
0 $2 $3 $4 $5 $6 $7 $8 $9 X,Y pos of 4 corners*
0 Add a 4 corners polygon primitive as box body*
4,1,4,$2,$3,$4,$5,$6,$7,$8,$9,$2,$3,0*
0 Add four circle primitives for the rounded corners*
1,1,$1+$1,$2,$3*
1,1,$1+$1,$4,$5*
1,1,$1+$1,$6,$7*
1,1,$1+$1,$8,$9*
0 Add four rect primitives between the rounded corners*
20,1,$1+$1,$2,$3,$4,$5,0*
20,1,$1+$1,$4,$5,$6,$7,0*
20,1,$1+$1,$6,$7,$8,$9,0*
20,1,$1+$1,$8,$9,$2,$3,0*%
G04 Aperture macros list end*
%ADD10C,0.150000*%
%ADD11C,0.120000*%
%ADD12C,2.200000*%
%ADD13C,5.050000*%
%ADD14C,2.600000*%
%ADD15C,1.400000*%
%ADD16RoundRect,0.100000X-0.100000X-0.575000X0.100000X-0.575000X0.100000X0.575000X-0.100000X0.575000X0*%
%ADD17O,0.900000X1.600000*%
%ADD18RoundRect,0.250000X-0.550000X-0.450000X0.550000X-0.450000X0.550000X0.450000X-0.550000X0.450000X0*%
%ADD19RoundRect,0.250000X-0.700000X-0.700000X0.700000X-0.700000X0.700000X0.700000X-0.700000X0.700000X0*%
G04 APERTURE END LIST*
D10*
X141303333Y-72534819D02*
X141303333Y-73249104D01*
X141303333Y-73249104D02*
X141350952Y-73391961D01*
X141350952Y-73391961D02*
X141446190Y-73487200D01*
X141446190Y-73487200D02*
X141589047Y-73534819D01*
X141589047Y-73534819D02*
X141684285Y-73534819D01*
X140303333Y-73534819D02*
X140874761Y-73534819D01*
X140589047Y-73534819D02*
X140589047Y-72534819D01*
X140589047Y-72534819D02*
X140684285Y-72677676D01*
X140684285Y-72677676D02*
X140779523Y-72772914D01*
X140779523Y-72772914D02*
X140874761Y-72820533D01*
D11*
X136710000Y-67630000D02*
X136710000Y-71990000D01*
X139210000Y-71990000D02*
X136710000Y-71990000D01*
X139210000Y-72190000D02*
X139210000Y-71990000D01*
X139210000Y-72190000D02*
X139870000Y-72190000D01*
X145230000Y-71990000D02*
X142730000Y-71990000D01*
X145230000Y-67630000D02*
X145230000Y-71990000D01*
%LPC*%
D12*
X140970000Y-79190000D03*
X145970000Y-81290000D03*
D13*
X140970000Y-85090000D03*
D14*
X135970000Y-90240000D03*
D15*
X129540000Y-80010000D03*
X129540000Y-82550000D03*
D16*
X139670000Y-71255000D03*
X140320000Y-71255000D03*
X140970000Y-71255000D03*
X141620000Y-71255000D03*
X142270000Y-71255000D03*
D17*
X137670000Y-68580000D03*
D18*
X137770000Y-71030000D03*
D19*
X139770000Y-68580000D03*
X142170000Y-68580000D03*
D18*
X144170000Y-71030000D03*
D17*
X144270000Y-68580000D03*
%LPD*%
M02*
