G04 #@! TF.GenerationSoftware,KiCad,Pcbnew,8.0.1*
G04 #@! TF.CreationDate,2024-11-04T22:09:55+13:00*
G04 #@! TF.ProjectId,morse_code_keyboard,6d6f7273-655f-4636-9f64-655f6b657962,rev?*
G04 #@! TF.SameCoordinates,Original*
G04 #@! TF.FileFunction,Copper,L1,Top*
G04 #@! TF.FilePolarity,Positive*
%FSLAX46Y46*%
G04 Gerber Fmt 4.6, Leading zero omitted, Abs format (unit mm)*
G04 Created by KiCad (PCBNEW 8.0.1) date 2024-11-04 22:09:55*
%MOMM*%
%LPD*%
G01*
G04 APERTURE LIST*
G04 Aperture macros list*
%AMRoundRect*
0 Rectangle with rounded corners*
0 $1 Rounding radius*
0 $2 $3 $4 $5 $6 $7 $8 $9 X,Y pos of 4 corners*
0 Add a 4 corners polygon primitive as box body*
4,1,4,$2,$3,$4,$5,$6,$7,$8,$9,$2,$3,0*
0 Add four circle primitives for the rounded corners*
1,1,$1+$1,$2,$3*
1,1,$1+$1,$4,$5*
1,1,$1+$1,$6,$7*
1,1,$1+$1,$8,$9*
0 Add four rect primitives between the rounded corners*
20,1,$1+$1,$2,$3,$4,$5,0*
20,1,$1+$1,$4,$5,$6,$7,0*
20,1,$1+$1,$6,$7,$8,$9,0*
20,1,$1+$1,$8,$9,$2,$3,0*%
G04 Aperture macros list end*
G04 #@! TA.AperFunction,ComponentPad*
%ADD10C,2.200000*%
G04 #@! TD*
G04 #@! TA.AperFunction,ComponentPad*
%ADD11C,2.600000*%
G04 #@! TD*
G04 #@! TA.AperFunction,SMDPad,CuDef*
%ADD12RoundRect,0.150000X0.150000X-0.850000X0.150000X0.850000X-0.150000X0.850000X-0.150000X-0.850000X0*%
G04 #@! TD*
G04 #@! TA.AperFunction,ComponentPad*
%ADD13C,1.400000*%
G04 #@! TD*
G04 #@! TA.AperFunction,SMDPad,CuDef*
%ADD14RoundRect,0.250000X-0.625000X0.400000X-0.625000X-0.400000X0.625000X-0.400000X0.625000X0.400000X0*%
G04 #@! TD*
G04 #@! TA.AperFunction,ComponentPad*
%ADD15O,0.900000X1.600000*%
G04 #@! TD*
G04 #@! TA.AperFunction,SMDPad,CuDef*
%ADD16RoundRect,0.250000X-0.412500X-0.650000X0.412500X-0.650000X0.412500X0.650000X-0.412500X0.650000X0*%
G04 #@! TD*
G04 #@! TA.AperFunction,ViaPad*
%ADD17C,0.600000*%
G04 #@! TD*
G04 #@! TA.AperFunction,Conductor*
%ADD18C,0.200000*%
G04 #@! TD*
G04 APERTURE END LIST*
D10*
X140970000Y-79190000D03*
X145970000Y-81290000D03*
D11*
X135970000Y-90240000D03*
D12*
X137160000Y-101600000D03*
X138430000Y-101600000D03*
X139700000Y-101600000D03*
X140970000Y-101600000D03*
X142240000Y-101600000D03*
X143510000Y-101600000D03*
X144780000Y-101600000D03*
X146050000Y-101600000D03*
X146050000Y-96600000D03*
X144780000Y-96600000D03*
X143510000Y-96600000D03*
X142240000Y-96600000D03*
X140970000Y-96600000D03*
X139700000Y-96600000D03*
X138430000Y-96600000D03*
X137160000Y-96600000D03*
D13*
X129540000Y-80010000D03*
X129540000Y-82550000D03*
D14*
X129540000Y-86080000D03*
X129540000Y-89180000D03*
D15*
X137670000Y-68580000D03*
X144270000Y-68580000D03*
D16*
X151815000Y-92075000D03*
X154940000Y-92075000D03*
X151815000Y-88265000D03*
X154940000Y-88265000D03*
D17*
X127635000Y-89535000D03*
X136525000Y-75565000D03*
X140970000Y-73660000D03*
X142240000Y-96520000D03*
X154940000Y-88265000D03*
X154940000Y-92075000D03*
X139700000Y-96520000D03*
D18*
X127990000Y-89180000D02*
X127635000Y-89535000D01*
X129540000Y-89180000D02*
X127990000Y-89180000D01*
X135255000Y-76835000D02*
X136525000Y-75565000D01*
X135255000Y-78740000D02*
X135255000Y-76835000D01*
X133350000Y-73660000D02*
X140970000Y-73660000D01*
X129540000Y-77470000D02*
X133350000Y-73660000D01*
X144780000Y-83000000D02*
X144780000Y-96600000D01*
X140970000Y-79190000D02*
X144780000Y-83000000D01*
X135255000Y-78740000D02*
X135255000Y-85725000D01*
X140970000Y-91440000D02*
X140970000Y-96600000D01*
X135255000Y-85725000D02*
X140970000Y-91440000D01*
X132080000Y-93980000D02*
X129540000Y-91440000D01*
X129540000Y-91440000D02*
X129540000Y-89180000D01*
X138430000Y-95250000D02*
X137160000Y-93980000D01*
X138430000Y-96600000D02*
X138430000Y-95250000D01*
X137160000Y-93980000D02*
X132080000Y-93980000D01*
X137160000Y-97599999D02*
X137160000Y-96600000D01*
X138620001Y-99060000D02*
X137160000Y-97599999D01*
X146685000Y-99060000D02*
X138620001Y-99060000D01*
X147955000Y-97790000D02*
X146685000Y-99060000D01*
X147955000Y-93345000D02*
X147955000Y-97790000D01*
X149225000Y-92075000D02*
X147955000Y-93345000D01*
X151815000Y-92075000D02*
X149225000Y-92075000D01*
X138430000Y-97599999D02*
X138430000Y-96600000D01*
X139255001Y-98425000D02*
X138430000Y-97599999D01*
X146685000Y-98425000D02*
X146050000Y-98425000D01*
X147320000Y-97790000D02*
X146685000Y-98425000D01*
X151815000Y-88265000D02*
X147320000Y-92760000D01*
X147320000Y-92760000D02*
X147320000Y-97790000D01*
X146050000Y-98425000D02*
X139255001Y-98425000D01*
X137160000Y-96229448D02*
X137160000Y-96600000D01*
X129540000Y-80010000D02*
X129540000Y-77470000D01*
X129540000Y-86080000D02*
X129540000Y-82550000D01*
M02*
